HIERARCHY
ROOT root
{
	OFFSET	0	13.1	24.9
	CHANNELS 6  Xposition Yposition Zposition Xrotation Yrotation Zrotation
	JOINT spine_1
	{
		OFFSET	0	9.99999	0
		CHANNELS 3  Xrotation Yrotation Zrotation
		JOINT spine_2
		{
			OFFSET	0	112	-10
			CHANNELS 3  Xrotation Yrotation Zrotation
			JOINT spine_3
			{
				OFFSET	0	206.5	19.3
				CHANNELS 3  Xrotation Yrotation Zrotation
				JOINT spine_4
				{
					OFFSET	0	110.4	14.6
					CHANNELS 3  Xrotation Yrotation Zrotation
					JOINT neck_1
					{
						OFFSET	0	71.8	-50.3
						CHANNELS 3  Xrotation Yrotation Zrotation
						JOINT neck_2
						{
							OFFSET	0	86.2	-25.8
							CHANNELS 3  Xrotation Yrotation Zrotation
							JOINT head_ee
							{
								OFFSET	0	179.8	-8.7
								CHANNELS 3  Xrotation Yrotation Zrotation
								End Site
								{
									OFFSET	1	0	0
								}
							}
						}
					}
					JOINT left_clavicle
					{
						OFFSET	-43.2	22.4	-70.8
						CHANNELS 3  Xrotation Yrotation Zrotation
						JOINT left_shoulder
						{
							OFFSET	-93.9	-5.79999	48.7
							CHANNELS 3  Xrotation Yrotation Zrotation
							JOINT left_elbow
							{
								OFFSET	-291.4	-30.8	15.2
								CHANNELS 3  Xrotation Yrotation Zrotation
								JOINT left_lowarm_twist
								{
									OFFSET	-110.7	-3.89999	13.6
									CHANNELS 3  Xrotation Yrotation Zrotation
									JOINT left_hand
									{
										OFFSET	-110.7	-3.89999	13.6
										CHANNELS 3  Xrotation Yrotation Zrotation
										JOINT left_ee
										{
											OFFSET	-80.8	-5.10001	12.1
											CHANNELS 3  Xrotation Yrotation Zrotation
											End Site
											{
												OFFSET	1	0	0
											}
										}
									}
								}
							}
						}
					}
					JOINT right_clavicle
					{
						OFFSET	43.2	22.4	-70.8
						CHANNELS 3  Xrotation Yrotation Zrotation
						JOINT right_shoulder
						{
							OFFSET	93.9	-5.79999	48.7
							CHANNELS 3  Xrotation Yrotation Zrotation
							JOINT right_elbow
							{
								OFFSET	291.4	-30.8	15.2
								CHANNELS 3  Xrotation Yrotation Zrotation
								JOINT right_lowarm_twist
								{
									OFFSET	110.7	-3.89999	13.6
									CHANNELS 3  Xrotation Yrotation Zrotation
									JOINT right_hand
									{
										OFFSET	110.7	-3.89999	13.6
										CHANNELS 3  Xrotation Yrotation Zrotation
										JOINT right_ee
										{
											OFFSET	80.8	-5.10001	12.1
											CHANNELS 3  Xrotation Yrotation Zrotation
											End Site
											{
												OFFSET	1	0	0
											}
										}
									}
								}
							}
						}
					}
				}
			}
		}
	}
	JOINT left_hip
	{
		OFFSET	-82.8	-127.5	0.300001
		CHANNELS 3  Xrotation Yrotation Zrotation
		JOINT left_knee
		{
			OFFSET	-28.2	-396.7	2.2
			CHANNELS 3  Xrotation Yrotation Zrotation
			JOINT left_ankle
			{
				OFFSET	-11.7	-411.3	35.4
				CHANNELS 3  Xrotation Yrotation Zrotation
				JOINT left_toes
				{
					OFFSET	0	-60	-88.6
					CHANNELS 3  Xrotation Yrotation Zrotation
					JOINT left_foot_ee
					{
						OFFSET	-22.5	-16.5	-42.2
						CHANNELS 3  Xrotation Yrotation Zrotation
						End Site
						{
							OFFSET	1	0	0
						}
					}
				}
			}
		}
	}
	JOINT right_hip
	{
		OFFSET	82.8	-127.5	0.300001
		CHANNELS 3  Xrotation Yrotation Zrotation
		JOINT right_knee
		{
			OFFSET	28.2	-396.7	2.2
			CHANNELS 3  Xrotation Yrotation Zrotation
			JOINT right_ankle
			{
				OFFSET	11.7	-411.3	35.4
				CHANNELS 3  Xrotation Yrotation Zrotation
				JOINT right_toes
				{
					OFFSET	0	-60	-88.6
					CHANNELS 3  Xrotation Yrotation Zrotation
					JOINT right_foot_ee
					{
						OFFSET	22.5	-16.5	-42.2
						CHANNELS 3  Xrotation Yrotation Zrotation
						End Site
						{
							OFFSET	1	0	0
						}
					}
				}
			}
		}
	}
}
MOTION
Frames: 6
Frame Time: 0.02
3372.46 753.848 -529.107 11.6268 72.5049 -11.5245 -2.48245 0.143978 1.02111 -2.48187 0.0787136 1.0282 -2.47978 -0.183241 1.0148 -2.48121 -0.0206819 1.031 -3.39173 5.62563 -2.95612 -3.29002 12.5315 -2.22571 -0.0 0.0 -0.0 5.51068 -23.2206 9.24923 -10.5378 -16.1833 61.1333 1.5074 -36.7471 0.500698 21.049 0.255328 -2.6616 2.18407 -8.04406 11.4044 -0.0 0.0 -0.0 9.21989 -5.65313 -17.7585 -17.5895 24.4099 -58.6796 0.821729 22.1491 -0.160841 9.55388 -0.237376 1.19592 -1.2653 -5.41034 6.0429 0.0 0.0 0.0 -12.747 8.68623 5.70335 -2.64551 0.09985 0.393686 24.4269 9.38166 -3.26755 -17.4876 0.0 0.0 -0.0 0.0 -0.0 12.8362 -1.50403 2.33539 -30.1876 -0.0368337 -4.57933 -24.9286 -28.4418 -3.9854 -40.1549 0.0 0.0 0.0 0.0 0.0 
3367.96 757.001 -532.245 9.55503 72.3557 -9.01902 -2.41229 0.0759088 0.871494 -2.41187 0.0203017 0.874558 -2.4111 -0.199982 0.85163 -2.41211 -0.0629782 0.872524 -2.82257 5.28467 -2.67765 -2.72697 11.6832 -2.0452 -0.0 0.0 -0.0 4.93898 -20.7429 8.23793 -8.72593 -18.1551 61.1519 1.59422 -38.2964 0.553582 21.0597 0.255208 -2.66296 1.81602 -10.7929 7.68708 -0.0 0.0 -0.0 9.19973 -5.75076 -17.7128 -18.8967 24.0606 -58.3677 0.85809 23.0288 -0.174808 11.4357 -0.260448 1.43518 -1.33988 -5.23867 6.61284 0.0 0.0 0.0 -13.6951 8.89539 5.07139 0.564595 -0.0236604 -0.0834097 21.7623 7.53511 -2.94691 -19.5683 0.0 0.0 -0.0 0.0 -0.0 15.061 2.53406 0.95407 -30.1247 -0.0392712 -4.56997 -25.1556 -28.9084 -4.03364 -40.1383 0.0 0.0 0.0 0.0 0.0 
3357.49 758.392 -532.583 7.03118 69.6931 -5.98488 -2.38767 0.217827 0.805972 -2.38733 0.166102 0.818199 -2.38448 -0.0442965 0.833712 -2.38544 0.0879239 0.830245 -2.83688 5.715 -2.50952 -2.73714 12.3336 -1.80746 -0.0 0.0 -0.0 4.73786 -18.7665 7.97812 -6.14564 -18.7037 60.6763 1.75 -40.9183 0.65292 19.6469 0.268895 -2.48304 1.68655 -10.6722 6.85977 -0.0 0.0 -0.0 9.10888 -4.78605 -17.5987 -19.2099 24.0453 -58.5579 0.846091 22.7398 -0.170142 11.7007 -0.263066 1.46893 -1.24329 -6.84652 5.24928 0.0 0.0 0.0 -14.7629 9.59633 5.65833 1.93827 -0.0846565 -0.285363 21.3175 10.8577 -2.89922 -19.6826 0.0 0.0 -0.0 0.0 -0.0 16.7868 -0.201454 3.00603 -29.3058 -0.0700286 -4.44807 -24.4373 -25.2161 -3.83518 -40.1337 0.0 0.0 0.0 0.0 0.0 
3351.95 755.55 -538.178 5.69192 69.4127 -4.11492 -2.23789 0.166013 0.671402 -2.23765 0.122954 0.680605 -2.23587 -0.0497887 0.689827 -2.23653 0.0597788 0.689033 -2.89583 5.81024 -2.76875 -2.787 12.7101 -2.05894 -0.0 0.0 -0.0 4.66079 -19.6511 7.73453 -3.94402 -19.1698 60.2033 1.87586 -42.8954 0.737 20.1286 0.264727 -2.54442 1.38349 -12.0289 4.21478 -0.0 0.0 -0.0 9.10578 -4.98109 -17.5806 -19.7233 23.722 -58.5122 0.817496 22.046 -0.159249 11.7142 -0.263195 1.47065 -1.15493 -6.60738 4.77905 0.0 0.0 0.0 -15.6467 10.1046 5.31082 5.9233 -0.28883 -0.862404 19.5805 11.5066 -2.68627 -20.4227 0.0 0.0 -0.0 0.0 -0.0 18.8344 0.156193 3.49812 -27.5548 -0.12993 -4.18602 -23.6981 -24.2892 -3.70173 -40.134 0.0 0.0 0.0 0.0 0.0 
3338.54 750.477 -541.279 5.65357 67.71 -4.08899 -2.24666 0.193266 0.608501 -2.24646 0.154155 0.619565 -2.24452 -0.0045109 0.638438 -2.24508 0.0963731 0.631139 -3.19414 5.3839 -3.05352 -3.09086 12.163 -2.38441 -0.0 0.0 -0.0 4.72971 -20.0327 7.84929 -2.25922 -19.5313 59.4793 1.87955 -42.9515 0.739513 21.4484 0.250663 -2.71242 1.08715 -12.4284 2.04152 -0.0 0.0 -0.0 9.00013 -4.7287 -17.39 -20.4909 23.8144 -58.5208 0.818584 22.0725 -0.159657 12.7 -0.271531 1.59629 -1.111 -7.13446 4.25609 0.0 0.0 0.0 -17.0048 10.7739 5.60394 5.10241 -0.243488 -0.744697 21.0233 12.3166 -2.86891 -20.8395 0.0 0.0 -0.0 0.0 -0.0 22.2265 0.221395 2.86563 -24.7868 -0.208194 -3.76848 -23.8733 -23.7708 -3.71985 -40.1485 0.0 0.0 0.0 0.0 0.0 
3327.06 751.691 -545.628 7.16312 66.9012 -5.52505 -2.52577 0.330814 0.709439 -2.52553 0.285002 0.729051 -2.52147 0.0913074 0.777432 -2.52225 0.212939 0.753257 -4.80343 6.16839 -2.0961 -4.74132 12.9068 -1.09414 -0.0 0.0 -0.0 4.51825 -19.2455 7.46314 -1.79045 -19.9035 58.6799 2.22057 -47.7201 0.982271 21.6973 0.247578 -2.74405 0.910745 -12.7608 0.709171 -0.0 0.0 -0.0 9.38232 -1.86924 -18.3029 -21.9449 23.9365 -58.3666 0.732833 19.9521 -0.128904 14.6939 -0.281778 1.85073 -1.01256 -7.59792 3.40896 0.0 0.0 0.0 -17.4887 9.69867 5.50102 2.6449 -0.117918 -0.388678 21.7315 13.4247 -2.96175 -21.1376 0.0 0.0 -0.0 0.0 -0.0 25.3337 -0.0508721 1.11111 -21.9693 -0.267044 -3.34017 -19.8753 -23.5175 -3.09054 -39.0372 0.0 0.0 0.0 0.0 0.0 
